FFmpeg Befehl: C:\Users\ThiloBrosinsky\AppData\Local\Microsoft\WinGet\Packages\Gyan.FFmpeg_Microsoft.Winget.Source_8wekyb3d8bbwe\ffmpeg-8.0.1-full_build\bin\ffmpeg.exe -y -f gdigrab -framerate 30 -i title="Peakboard Runtime" -t 15 -b:v 2M -minrate 1M -maxrate 4M -bufsize 2M -c:v libx264 -preset fast -pix_fmt yuv420p "C:\Source\Blog\assets\2026-03-04-19-57-28\bg_clip.mp4"
Window Title: Peakboard Runtime
Start: 2026-03-04T19:57:41.3390534+01:00

Exit Code: 0
Exited normally: True

STDERR:
ffmpeg version 8.0.1-full_build-www.gyan.dev Copyright (c) 2000-2025 the FFmpeg developers
  built with gcc 15.2.0 (Rev8, Built by MSYS2 project)
  configuration: --enable-gpl --enable-version3 --enable-static --disable-w32threads --disable-autodetect --enable-fontconfig --enable-iconv --enable-gnutls --enable-lcms2 --enable-libxml2 --enable-gmp --enable-bzlib --enable-lzma --enable-libsnappy --enable-zlib --enable-librist --enable-libsrt --enable-libssh --enable-libzmq --enable-avisynth --enable-libbluray --enable-libcaca --enable-libdvdnav --enable-libdvdread --enable-sdl2 --enable-libaribb24 --enable-libaribcaption --enable-libdav1d --enable-libdavs2 --enable-libopenjpeg --enable-libquirc --enable-libuavs3d --enable-libxevd --enable-libzvbi --enable-liboapv --enable-libqrencode --enable-librav1e --enable-libsvtav1 --enable-libvvenc --enable-libwebp --enable-libx264 --enable-libx265 --enable-libxavs2 --enable-libxeve --enable-libxvid --enable-libaom --enable-libjxl --enable-libvpx --enable-mediafoundation --enable-libass --enable-frei0r --enable-libfreetype --enable-libfribidi --enable-libharfbuzz --enable-liblensfun --enable-libvidstab --enable-libvmaf --enable-libzimg --enable-amf --enable-cuda-llvm --enable-cuvid --enable-dxva2 --enable-d3d11va --enable-d3d12va --enable-ffnvcodec --enable-libvpl --enable-nvdec --enable-nvenc --enable-vaapi --enable-libshaderc --enable-vulkan --enable-libplacebo --enable-opencl --enable-libcdio --enable-openal --enable-libgme --enable-libmodplug --enable-libopenmpt --enable-libopencore-amrwb --enable-libmp3lame --enable-libshine --enable-libtheora --enable-libtwolame --enable-libvo-amrwbenc --enable-libcodec2 --enable-libilbc --enable-libgsm --enable-liblc3 --enable-libopencore-amrnb --enable-libopus --enable-libspeex --enable-libvorbis --enable-ladspa --enable-libbs2b --enable-libflite --enable-libmysofa --enable-librubberband --enable-libsoxr --enable-chromaprint --enable-whisper
  libavutil      60.  8.100 / 60.  8.100
  libavcodec     62. 11.100 / 62. 11.100
  libavformat    62.  3.100 / 62.  3.100
  libavdevice    62.  1.100 / 62.  1.100
  libavfilter    11.  4.100 / 11.  4.100
  libswscale      9.  1.100 /  9.  1.100
  libswresample   6.  1.100 /  6.  1.100
[gdigrab @ 0000020a9d286400] Found window Peakboard Runtime, capturing 1920x1200x32 at (0,0)
[gdigrab @ 0000020a9d286400] Stream #0: not enough frames to estimate rate; consider increasing probesize
Input #0, gdigrab, from 'title=Peakboard Runtime':
  Duration: N/A, start: 1772650661.465599, bitrate: 2211852 kb/s
  Stream #0:0: Video: bmp, bgra, 1920x1200, 2211852 kb/s, 30 fps, 1000k tbr, 1000k tbn, start 1772650661.465599
Stream mapping:
  Stream #0:0 -> #0:0 (bmp (native) -> h264 (libx264))
Press [q] to stop, [?] for help
[libx264 @ 0000020a9d28c080] using cpu capabilities: MMX2 SSE2Fast SSSE3 SSE4.2 AVX FMA3 BMI2 AVX2 AVX512
[libx264 @ 0000020a9d28c080] profile High, level 5.0, 4:2:0, 8-bit
[libx264 @ 0000020a9d28c080] 264 - core 165 r3223 0480cb0 - H.264/MPEG-4 AVC codec - Copyleft 2003-2025 - http://www.videolan.org/x264.html - options: cabac=1 ref=2 deblock=1:0:0 analyse=0x3:0x113 me=hex subme=6 psy=1 psy_rd=1.00:0.00 mixed_ref=1 me_range=16 chroma_me=1 trellis=1 8x8dct=1 cqm=0 deadzone=21,11 fast_pskip=1 chroma_qp_offset=-2 threads=24 lookahead_threads=4 sliced_threads=0 nr=0 decimate=1 interlaced=0 bluray_compat=0 constrained_intra=0 bframes=3 b_pyramid=2 b_adapt=1 b_bias=0 direct=1 weightb=1 open_gop=0 weightp=1 keyint=250 keyint_min=25 scenecut=40 intra_refresh=0 rc_lookahead=30 rc=abr mbtree=1 bitrate=2000 ratetol=1.0 qcomp=0.60 qpmin=0 qpmax=69 qpstep=4 vbv_maxrate=4000 vbv_bufsize=2000 nal_hrd=none filler=0 ip_ratio=1.40 aq=1:1.00
Output #0, mp4, to 'C:\Source\Blog\assets\2026-03-04-19-57-28\bg_clip.mp4':
  Metadata:
    encoder         : Lavf62.3.100
  Stream #0:0: Video: h264 (avc1 / 0x31637661), yuv420p(tv, progressive), 1920x1200, q=2-31, 2000 kb/s, 30 fps, 15360 tbn
    Metadata:
      encoder         : Lavc62.11.100 libx264
    Side data:
      cpb: bitrate max/min/avg: 4000000/0/2000000 buffer size: 2000000 vbv_delay: N/A
frame=    0 fps=0.0 q=0.0 size=       0KiB time=N/A bitrate=N/A speed=N/A elapsed=0:00:00.51    frame=    0 fps=0.0 q=0.0 size=       0KiB time=N/A bitrate=N/A speed=N/A elapsed=0:00:01.02    frame=    0 fps=0.0 q=0.0 size=       0KiB time=N/A bitrate=N/A speed=N/A elapsed=0:00:01.54    frame=    4 fps=1.9 q=35.0 size=       0KiB time=00:00:00.03 bitrate=  11.5kbits/s speed=0.0162x elapsed=0:00:02.05    frame=   20 fps=7.8 q=24.0 size=       0KiB time=00:00:00.56 bitrate=   0.7kbits/s speed=0.22x elapsed=0:00:02.57    frame=   35 fps= 11 q=20.0 size=       0KiB time=00:00:01.06 bitrate=   0.4kbits/s speed=0.345x elapsed=0:00:03.09    frame=   51 fps= 14 q=18.0 size=       0KiB time=00:00:01.60 bitrate=   0.2kbits/s speed=0.444x elapsed=0:00:03.60    frame=   66 fps= 16 q=15.0 size=       0KiB time=00:00:02.10 bitrate=   0.2kbits/s speed=0.509x elapsed=0:00:04.12    frame=   81 fps= 17 q=13.0 size=       0KiB time=00:00:02.60 bitrate=   0.1kbits/s speed=0.561x elapsed=0:00:04.63    frame=   97 fps= 19 q=11.0 size=       0KiB time=00:00:03.13 bitrate=   0.1kbits/s speed=0.608x elapsed=0:00:05.15    frame=  112 fps= 20 q=13.0 size=       0KiB time=00:00:03.63 bitrate=   0.1kbits/s speed=0.641x elapsed=0:00:05.66    frame=  128 fps= 21 q=9.0 size=     256KiB time=00:00:04.16 bitrate= 503.4kbits/s speed=0.674x elapsed=0:00:06.18    frame=  143 fps= 21 q=9.0 size=     256KiB time=00:00:04.66 bitrate= 449.5kbits/s speed=0.696x elapsed=0:00:06.70    frame=  159 fps= 22 q=10.0 size=     256KiB time=00:00:05.20 bitrate= 403.4kbits/s speed=0.72x elapsed=0:00:07.21    frame=  174 fps= 23 q=10.0 size=     256KiB time=00:00:05.70 bitrate= 368.0kbits/s speed=0.737x elapsed=0:00:07.73    frame=  190 fps= 23 q=8.0 size=     256KiB time=00:00:06.23 bitrate= 336.5kbits/s speed=0.756x elapsed=0:00:08.24    frame=  205 fps= 23 q=10.0 size=     256KiB time=00:00:06.73 bitrate= 311.5kbits/s speed=0.769x elapsed=0:00:08.76    frame=  221 fps= 24 q=16.0 size=     256KiB time=00:00:07.26 bitrate= 288.7kbits/s speed=0.783x elapsed=0:00:09.28    frame=  236 fps= 24 q=12.0 size=     256KiB time=00:00:07.76 bitrate= 270.1kbits/s speed=0.793x elapsed=0:00:09.79    frame=  252 fps= 24 q=11.0 size=     512KiB time=00:00:08.30 bitrate= 505.4kbits/s speed=0.805x elapsed=0:00:10.30    frame=  267 fps= 25 q=10.0 size=     512KiB time=00:00:08.80 bitrate= 476.7kbits/s speed=0.813x elapsed=0:00:10.82    frame=  283 fps= 25 q=9.0 size=     512KiB time=00:00:09.33 bitrate= 449.4kbits/s speed=0.823x elapsed=0:00:11.34    frame=  298 fps= 25 q=8.0 size=     512KiB time=00:00:09.83 bitrate= 426.6kbits/s speed=0.829x elapsed=0:00:11.85    frame=  314 fps= 25 q=10.0 size=     512KiB time=00:00:10.36 bitrate= 404.6kbits/s speed=0.838x elapsed=0:00:12.36    frame=  329 fps= 26 q=7.0 size=     512KiB time=00:00:10.86 bitrate= 386.0kbits/s speed=0.843x elapsed=0:00:12.88    frame=  344 fps= 26 q=8.0 size=     512KiB time=00:00:11.36 bitrate= 369.0kbits/s speed=0.848x elapsed=0:00:13.39    frame=  360 fps= 26 q=8.0 size=     512KiB time=00:00:11.90 bitrate= 352.5kbits/s speed=0.855x elapsed=0:00:13.91    frame=  375 fps= 26 q=8.0 size=     512KiB time=00:00:12.40 bitrate= 338.3kbits/s speed=0.859x elapsed=0:00:14.42    frame=  390 fps= 26 q=9.0 size=     512KiB time=00:00:12.90 bitrate= 325.2kbits/s speed=0.863x elapsed=0:00:14.93    [out#0/mp4 @ 0000020a9d289a00] video:800KiB audio:0KiB subtitle:0KiB other streams:0KiB global headers:0KiB muxing overhead: 0.757473%
frame=  450 fps= 30 q=-1.0 Lsize=     806KiB time=00:00:14.90 bitrate= 443.2kbits/s speed=0.98x elapsed=0:00:15.20    
[libx264 @ 0000020a9d28c080] frame I:2     Avg QP:15.35  size: 72816
[libx264 @ 0000020a9d28c080] frame P:117   Avg QP: 6.19  size:  5348
[libx264 @ 0000020a9d28c080] frame B:331   Avg QP: 6.99  size:   143
[libx264 @ 0000020a9d28c080] consecutive B-frames:  1.1%  0.9%  4.7% 93.3%
[libx264 @ 0000020a9d28c080] mb I  I16..4: 64.1% 21.9% 14.0%
[libx264 @ 0000020a9d28c080] mb P  I16..4:  2.0%  0.1%  0.2%  P16..4:  2.7%  0.1%  0.1%  0.0%  0.0%    skip:94.9%
[libx264 @ 0000020a9d28c080] mb B  I16..4:  0.0%  0.0%  0.0%  B16..8:  0.3%  0.0%  0.0%  direct: 0.1%  skip:99.7%  L0:46.8% L1:53.2% BI: 0.1%
[libx264 @ 0000020a9d28c080] final ratefactor: 1.55
[libx264 @ 0000020a9d28c080] 8x8 transform intra:11.0% inter:41.4%
[libx264 @ 0000020a9d28c080] coded y,uvDC,uvAC intra: 7.5% 15.2% 13.2% inter: 0.3% 0.5% 0.4%
[libx264 @ 0000020a9d28c080] i16 v,h,dc,p: 54% 45%  1%  0%
[libx264 @ 0000020a9d28c080] i8 v,h,dc,ddl,ddr,vr,hd,vl,hu: 61% 14% 25%  0%  0%  0%  0%  0%  0%
[libx264 @ 0000020a9d28c080] i4 v,h,dc,ddl,ddr,vr,hd,vl,hu: 37% 22% 21%  3%  4%  5%  3%  4%  3%
[libx264 @ 0000020a9d28c080] i8c dc,h,v,p: 50% 41%  8%  1%
[libx264 @ 0000020a9d28c080] Weighted P-Frames: Y:0.0% UV:0.0%
[libx264 @ 0000020a9d28c080] ref P L0: 88.8% 11.2%
[libx264 @ 0000020a9d28c080] ref B L0: 85.1% 14.9%
[libx264 @ 0000020a9d28c080] ref B L1: 97.9%  2.1%
[libx264 @ 0000020a9d28c080] kb/s:436.56

